# This file uses centimeters as units for non-parametric coordinates.

mtllib Crate1.mtl

g default

v -1.000000 -1.000000 1.000000

v -1.000000 -1.000000 -1.000000

v 1.000000 -1.000000 -1.000000

v 1.000000 -1.000000 1.000000

v -1.000000 1.000000 1.000000

v -1.000000 1.000000 -1.000000

v 1.000000 1.000000 -1.000000

v 1.000000 1.000000 1.000000

vt 0.000000 0.000000

vt 1.000000 0.000000

vt 1.000000 1.000000

vt 0.000000 1.000000

vt 0.000000 0.000000

vt 1.000000 0.000000

vt 1.000000 1.000000

vt 0.000000 1.000000

vt 0.000000 0.000000

vt 1.000000 0.000000

vt 1.000000 1.000000

vt 0.000000 1.000000

vt 0.000000 0.000000

vt 1.000000 0.000000

vt 1.000000 1.000000

vt 0.000000 1.000000

vt 0.000000 0.000000

vt 1.000000 0.000000

vt 1.000000 1.000000

vt 0.000000 1.000000

vt 0.000000 0.000000

vt 1.000000 0.000000

vt 1.000000 1.000000

vt 0.000000 1.000000

vn -1.000000 0.000000 0.000000

vn -1.000000 0.000000 0.000000

vn -1.000000 0.000000 0.000000

vn -1.000000 0.000000 0.000000

vn 0.000000 0.000000 -1.000000

vn 0.000000 0.000000 -1.000000

vn 0.000000 0.000000 -1.000000

vn 0.000000 0.000000 -1.000000

vn 1.000000 0.000000 0.000000

vn 1.000000 0.000000 0.000000

vn 1.000000 0.000000 0.000000

vn 1.000000 0.000000 0.000000

vn 0.000000 0.000000 1.000000

vn 0.000000 0.000000 1.000000

vn 0.000000 0.000000 1.000000

vn 0.000000 0.000000 1.000000

vn 0.000000 -1.000000 0.000000

vn 0.000000 -1.000000 0.000000

vn 0.000000 -1.000000 0.000000

vn 0.000000 -1.000000 0.000000

vn 0.000000 1.000000 0.000000

vn 0.000000 1.000000 0.000000

vn 0.000000 1.000000 0.000000

vn 0.000000 1.000000 0.000000

s 1

g Crate1:Mesh

usemtl Crate1:Material_001

f 5/1/1 6/2/2 1/4/3

f 1/4/3 6/2/2 2/3/4

s 2

f 6/5/5 7/6/6 2/8/7

f 2/8/7 7/6/6 3/7/8

s 3

f 7/9/9 8/10/10 3/12/11

f 3/12/11 8/10/10 4/11/12

s 4

f 8/13/13 5/14/14 4/16/15

f 4/16/15 5/14/14 1/15/16

s 5

f 1/17/17 2/18/18 4/20/19

f 4/20/19 2/18/18 3/19/20

s 6

f 8/21/21 7/22/22 5/24/23

f 5/24/23 7/22/22 6/23/24

g default

v -1.000000 -1.000000 1.000000

v -1.000000 -1.000000 -1.000000

v 1.000000 -1.000000 -1.000000

v 1.000000 -1.000000 1.000000

v -1.000000 1.000000 1.000000

v -1.000000 1.000000 -1.000000

v 1.000000 1.000000 -1.000000

v 1.000000 1.000000 1.000000

vt 0.000000 0.000000

vt 1.000000 0.000000

vt 1.000000 1.000000

vt 0.000000 1.000000

vt 0.000000 0.000000

vt 1.000000 0.000000

vt 1.000000 1.000000

vt 0.000000 1.000000

vt 0.000000 0.000000

vt 1.000000 0.000000

vt 1.000000 1.000000

vt 0.000000 1.000000

vt 0.000000 0.000000

vt 1.000000 0.000000

vt 1.000000 1.000000

vt 0.000000 1.000000

vt 0.000000 0.000000

vt 1.000000 0.000000

vt 1.000000 1.000000

vt 0.000000 1.000000

vt 0.000000 0.000000

vt 1.000000 0.000000

vt 1.000000 1.000000

vt 0.000000 1.000000

vn -1.000000 0.000000 0.000000

vn -1.000000 0.000000 0.000000
vn -1.000000 0.000000 0.000000
vn -1.000000 0.000000 0.000000
vn 0.000000 0.000000 -1.000000
vn 0.000000 0.000000 -1.000000
vn 0.000000 0.000000 -1.000000
vn 0.000000 0.000000 -1.000000
vn 1.000000 0.000000 0.000000
vn 1.000000 0.000000 0.000000
vn 1.000000 0.000000 0.000000
vn 1.000000 0.000000 0.000000
vn 0.000000 0.000000 1.000000
vn 0.000000 0.000000 1.000000
vn 0.000000 0.000000 1.000000
vn 0.000000 0.000000 1.000000
vn 0.000000 -1.000000 0.000000
vn 0.000000 -1.000000 0.000000
vn 0.000000 -1.000000 0.000000
vn 0.000000 -1.000000 0.000000
vn 0.000000 1.000000 0.000000
vn 0.000000 1.000000 0.000000
vn 0.000000 1.000000 0.000000
vn 0.000000 1.000000 0.000000
s 1
g Crate1:Mesh
f 13/25/25 14/26/26 9/28/27
f 9/28/27 14/26/26 10/27/28
s 2
f 14/29/29 15/30/30 10/32/31
f 10/32/31 15/30/30 11/31/32
s 3
f 15/33/33 16/34/34 11/36/35
f 11/36/35 16/34/34 12/35/36
s 4
f 16/37/37 13/38/38 12/40/39
f 12/40/39 13/38/38 9/39/40
s 5
f 9/41/41 10/42/42 12/44/43
f 12/44/43 10/42/42 11/43/44
s 6
f 16/45/45 15/46/46 13/48/47
f 13/48/47 15/46/46 14/47/48
